<?xml version="1.0" ?><svg enable-background="new 0 0 188 224.0005" id="office" version="1.1" viewBox="0 0 188 224.0005" xml:space="preserve" xmlns="http://www.w3.org/2000/svg" xmlns:xlink="http://www.w3.org/1999/xlink"><path d="M185.1739,19.8129l-64-19.6368c-0.8812-0.2692-1.8304-0.2304-2.6819,0.1212l-116,47.1992  C0.9863,48.1061,0,49.5709,0,51.1997v125.3828c0,1.668,1.0351,3.16,2.5975,3.746l116,43.418c0.4512,0.168,0.926,0.254,1.4025,0.254  c0.3203,0,0.6407-0.0392,0.9531-0.1172l64-15.7108c1.7888-0.4376,3.0469-2.0392,3.0469-3.8828V23.6373  C188,21.8793,186.8535,20.3285,185.1739,19.8129z M41.576,167.6761c1.4707-0.6288,2.424-2.074,2.424-3.6756V55.2465l68-14.3164  v146.4064l-85.58-13.164L41.576,167.6761z M180,201.1529l-59.7541,14.668l-86.7396-32.4652l81.886,12.598  c0.2012,0.0312,0.4044,0.0468,0.6077,0.0468c0.9491,0,1.8751-0.336,2.6055-0.9648c0.8848-0.758,1.3945-1.8672,1.3945-3.0352v-156  c0-1.2072-0.5429-2.3476-1.4805-3.1056c-0.9355-0.7656-2.168-1.0544-3.344-0.8084l-76,16C37.3243,48.4769,36,50.1097,36,52.0005  v109.3632l-25.576,10.9612c-0.8185,0.3504-1.4709,0.9504-1.892,1.6836L8,173.8089V53.8913L120.1875,8.2425L180,26.5941V201.1529z"/></svg>